<mxfile host="app.diagrams.net" modified="2023-07-21T09:51:05.412Z" agent="Mozilla/5.0 (Windows NT 10.0; Win64; x64; rv:109.0) Gecko/20100101 Firefox/115.0" etag="sMnv2oroHXRXKtaqoRkb" version="21.6.5" type="github">
  <diagram name="Seite-1" id="as_jIwGET9pVKyM1M2Xx">
    <mxGraphModel dx="819" dy="431" grid="1" gridSize="10" guides="1" tooltips="1" connect="1" arrows="1" fold="1" page="1" pageScale="1" pageWidth="827" pageHeight="1169" math="0" shadow="0">
      <root>
        <mxCell id="0" />
        <mxCell id="1" parent="0" />
        <mxCell id="uwKAEFziGzVnIFo3lXlB-1" value="Build" style="rounded=0;whiteSpace=wrap;html=1;" vertex="1" parent="1">
          <mxGeometry x="110" y="160" width="120" height="60" as="geometry" />
        </mxCell>
        <mxCell id="uwKAEFziGzVnIFo3lXlB-2" value="UnitTest" style="rounded=0;whiteSpace=wrap;html=1;" vertex="1" parent="1">
          <mxGeometry x="270" y="160" width="120" height="60" as="geometry" />
        </mxCell>
        <mxCell id="uwKAEFziGzVnIFo3lXlB-3" value="&lt;div&gt;CodeCoverage&lt;/div&gt;&lt;div&gt;CodeStyleCheck&lt;br&gt;&lt;/div&gt;" style="rounded=0;whiteSpace=wrap;html=1;" vertex="1" parent="1">
          <mxGeometry x="430" y="160" width="120" height="60" as="geometry" />
        </mxCell>
        <mxCell id="uwKAEFziGzVnIFo3lXlB-4" value="&lt;div&gt;InternalDeploy&lt;/div&gt;" style="rounded=0;whiteSpace=wrap;html=1;" vertex="1" parent="1">
          <mxGeometry x="590" y="160" width="120" height="60" as="geometry" />
        </mxCell>
        <mxCell id="uwKAEFziGzVnIFo3lXlB-6" value="" style="endArrow=classic;html=1;rounded=0;exitX=1;exitY=0.5;exitDx=0;exitDy=0;entryX=0;entryY=0.5;entryDx=0;entryDy=0;" edge="1" parent="1" source="uwKAEFziGzVnIFo3lXlB-1" target="uwKAEFziGzVnIFo3lXlB-2">
          <mxGeometry width="50" height="50" relative="1" as="geometry">
            <mxPoint x="390" y="410" as="sourcePoint" />
            <mxPoint x="440" y="360" as="targetPoint" />
          </mxGeometry>
        </mxCell>
        <mxCell id="uwKAEFziGzVnIFo3lXlB-7" value="" style="endArrow=classic;html=1;rounded=0;exitX=1;exitY=0.5;exitDx=0;exitDy=0;entryX=0;entryY=0.5;entryDx=0;entryDy=0;" edge="1" parent="1" source="uwKAEFziGzVnIFo3lXlB-2" target="uwKAEFziGzVnIFo3lXlB-3">
          <mxGeometry width="50" height="50" relative="1" as="geometry">
            <mxPoint x="240" y="200" as="sourcePoint" />
            <mxPoint x="280" y="200" as="targetPoint" />
          </mxGeometry>
        </mxCell>
        <mxCell id="uwKAEFziGzVnIFo3lXlB-8" value="" style="endArrow=classic;html=1;rounded=0;exitX=1;exitY=0.5;exitDx=0;exitDy=0;entryX=0;entryY=0.5;entryDx=0;entryDy=0;" edge="1" parent="1" source="uwKAEFziGzVnIFo3lXlB-3" target="uwKAEFziGzVnIFo3lXlB-4">
          <mxGeometry width="50" height="50" relative="1" as="geometry">
            <mxPoint x="250" y="210" as="sourcePoint" />
            <mxPoint x="290" y="210" as="targetPoint" />
          </mxGeometry>
        </mxCell>
        <mxCell id="uwKAEFziGzVnIFo3lXlB-10" value="&lt;div&gt;NotifyDeveloper&lt;/div&gt;" style="rounded=0;whiteSpace=wrap;html=1;" vertex="1" parent="1">
          <mxGeometry x="110" y="280" width="120" height="60" as="geometry" />
        </mxCell>
        <mxCell id="uwKAEFziGzVnIFo3lXlB-12" value="" style="endArrow=classic;html=1;rounded=0;entryX=1.006;entryY=0.65;entryDx=0;entryDy=0;entryPerimeter=0;" edge="1" parent="1" target="uwKAEFziGzVnIFo3lXlB-10">
          <mxGeometry width="50" height="50" relative="1" as="geometry">
            <mxPoint x="250" y="190" as="sourcePoint" />
            <mxPoint x="240" y="330" as="targetPoint" />
            <Array as="points">
              <mxPoint x="250" y="319" />
            </Array>
          </mxGeometry>
        </mxCell>
        <mxCell id="uwKAEFziGzVnIFo3lXlB-13" value="" style="endArrow=classic;html=1;rounded=0;" edge="1" parent="1">
          <mxGeometry width="50" height="50" relative="1" as="geometry">
            <mxPoint x="408" y="190" as="sourcePoint" />
            <mxPoint x="230" y="319" as="targetPoint" />
            <Array as="points">
              <mxPoint x="408" y="319" />
            </Array>
          </mxGeometry>
        </mxCell>
        <mxCell id="uwKAEFziGzVnIFo3lXlB-14" value="" style="endArrow=classic;html=1;rounded=0;entryX=0.996;entryY=0.659;entryDx=0;entryDy=0;entryPerimeter=0;" edge="1" parent="1" target="uwKAEFziGzVnIFo3lXlB-10">
          <mxGeometry width="50" height="50" relative="1" as="geometry">
            <mxPoint x="568" y="190" as="sourcePoint" />
            <mxPoint x="260" y="330" as="targetPoint" />
            <Array as="points">
              <mxPoint x="568" y="319" />
            </Array>
          </mxGeometry>
        </mxCell>
        <mxCell id="uwKAEFziGzVnIFo3lXlB-17" value="Fail" style="rounded=0;whiteSpace=wrap;html=1;" vertex="1" parent="1">
          <mxGeometry x="230" y="240" width="40" height="20" as="geometry" />
        </mxCell>
        <mxCell id="uwKAEFziGzVnIFo3lXlB-18" value="Fail" style="rounded=0;whiteSpace=wrap;html=1;" vertex="1" parent="1">
          <mxGeometry x="390" y="240" width="40" height="20" as="geometry" />
        </mxCell>
        <mxCell id="uwKAEFziGzVnIFo3lXlB-20" value="Fail" style="rounded=0;whiteSpace=wrap;html=1;" vertex="1" parent="1">
          <mxGeometry x="550" y="240" width="40" height="20" as="geometry" />
        </mxCell>
        <mxCell id="uwKAEFziGzVnIFo3lXlB-23" value="" style="endArrow=classic;html=1;rounded=0;exitX=1;exitY=0.5;exitDx=0;exitDy=0;" edge="1" parent="1" source="uwKAEFziGzVnIFo3lXlB-4">
          <mxGeometry width="50" height="50" relative="1" as="geometry">
            <mxPoint x="748" y="190" as="sourcePoint" />
            <mxPoint x="230" y="320" as="targetPoint" />
            <Array as="points">
              <mxPoint x="748" y="190" />
              <mxPoint x="748" y="319" />
            </Array>
          </mxGeometry>
        </mxCell>
        <mxCell id="uwKAEFziGzVnIFo3lXlB-24" value="Fail" style="rounded=0;whiteSpace=wrap;html=1;" vertex="1" parent="1">
          <mxGeometry x="730" y="240" width="40" height="20" as="geometry" />
        </mxCell>
      </root>
    </mxGraphModel>
  </diagram>
</mxfile>
